<mxfile host="app.diagrams.net" modified="2021-03-30T05:24:30.465Z" agent="5.0 (Windows NT 10.0; Win64; x64) AppleWebKit/537.36 (KHTML, like Gecko) Chrome/89.0.4389.90 Safari/537.36" etag="MTyOmH7woRld3_gJadnN" version="14.5.3" type="github">
  <diagram id="4xDrk-c8I_BD5ucDnmGU" name="Page-1">
    <mxGraphModel dx="1254" dy="651" grid="1" gridSize="10" guides="1" tooltips="1" connect="1" arrows="1" fold="1" page="1" pageScale="1" pageWidth="827" pageHeight="1169" math="0" shadow="0">
      <root>
        <mxCell id="0" />
        <mxCell id="1" parent="0" />
        <UserObject label="... has ... of ..." lucidchartObjectId="GAUo3a5jdaiz" id="cci7vfsGfOAvyLnjox6C-1">
          <mxCell style="html=1;overflow=block;blockSpacing=1;whiteSpace=wrap;strokeColor=none;fillColor=none;whiteSpace=wrap;fontSize=16.7;fontColor=#333333;spacing=0;strokeOpacity=100;rounded=1;absoluteArcSize=1;arcSize=9;strokeWidth=2.3;" parent="1" vertex="1">
            <mxGeometry x="435" y="225" width="180" height="45" as="geometry" />
          </mxCell>
        </UserObject>
        <UserObject label="has" lucidchartObjectId="yBUoh3BoLTmM" id="cci7vfsGfOAvyLnjox6C-2">
          <mxCell style="html=1;overflow=block;blockSpacing=1;whiteSpace=wrap;strokeColor=none;fillColor=none;whiteSpace=wrap;fontSize=16.7;fontColor=#333333;spacing=0;strokeOpacity=100;rounded=1;absoluteArcSize=1;arcSize=9;strokeWidth=2.3;" parent="1" vertex="1">
            <mxGeometry x="173" y="525" width="72" height="45" as="geometry" />
          </mxCell>
        </UserObject>
        <mxCell id="cci7vfsGfOAvyLnjox6C-3" value="" style="group;html=1;" parent="1" vertex="1">
          <mxGeometry x="285" y="134" width="47" height="31" as="geometry" />
        </mxCell>
        <mxCell id="cci7vfsGfOAvyLnjox6C-4" value="" style="shape=stencil(UzV2Ls5ILEhVNTIoLinKz04tz0wpyVA1dlE1MsrMy0gtyiwBslSNXVWNndPyi1LTi/JL81Ig/IJEkEoQKze/DGRCBUSfAUiHkUElMs8NojAnMw+nQkMDPEphkmQpJtoJKAqBDIQP0zJzciABhCyPHiJAIUhoGrsCAA==);whiteSpace=wrap;fontSize=13;fillOpacity=100;strokeWidth=1.2;whiteSpace=wrap;spacing=0;rounded=1;absoluteArcSize=1;arcSize=1.2;" parent="cci7vfsGfOAvyLnjox6C-3" vertex="1">
          <mxGeometry width="47" height="31" relative="1" as="geometry" />
        </mxCell>
        <mxCell id="cci7vfsGfOAvyLnjox6C-5" value="" style="group;html=1;" parent="1" vertex="1">
          <mxGeometry x="332" y="134" width="47" height="31" as="geometry" />
        </mxCell>
        <mxCell id="cci7vfsGfOAvyLnjox6C-6" value="" style="shape=stencil(UzV2Ls5ILEhVNTIoLinKz04tz0wpyVA1dlE1MsrMy0gtyiwBslSNXVWNndPyi1LTi/JL81Ig/IJEkEoQKze/DGRCBUSfAUiHkUElMs8NojAnMw+nQkMDPEphkmQpJtoJKAqBDIQP0zJzciABhCyPHiJAIUhoGrsCAA==);whiteSpace=wrap;fontSize=13;fillOpacity=100;strokeWidth=1.2;whiteSpace=wrap;spacing=0;rounded=1;absoluteArcSize=1;arcSize=1.2;" parent="cci7vfsGfOAvyLnjox6C-5" vertex="1">
          <mxGeometry width="47" height="31" relative="1" as="geometry" />
        </mxCell>
        <mxCell id="cci7vfsGfOAvyLnjox6C-7" value="" style="group;html=1;" parent="1" vertex="1">
          <mxGeometry x="135" y="120" width="90" height="60" as="geometry" />
        </mxCell>
        <mxCell id="cci7vfsGfOAvyLnjox6C-8" value="" style="shape=stencil(nZBLDoAgDERP0z3SIyjew0SURgSD+Lu9kMZoXLhwN9O+tukAlrNpJg1SzDH4QW/URgNYgZTkjA4UkwJUgGXng+6DX1zLfmoymdXo17xh5zmRJ6Q42BWCfc2oJfdAr+Yv+AP9Cb7OJ3H/2JG1HNGz/84klThPVCc=);whiteSpace=wrap;fontSize=13;fillOpacity=100;strokeWidth=1.2;whiteSpace=wrap;spacing=0;rounded=1;absoluteArcSize=1;arcSize=36;" parent="cci7vfsGfOAvyLnjox6C-7" vertex="1">
          <mxGeometry width="90" height="60" relative="1" as="geometry" />
        </mxCell>
        <mxCell id="cci7vfsGfOAvyLnjox6C-9" value="User&#xa;(.name)" style="strokeColor=none;fillColor=none;overflow=visible;whiteSpace=wrap;fontSize=13;whiteSpace=wrap;spacing=0;fillOpacity=100;rounded=1;absoluteArcSize=1;arcSize=36;strokeWidth=1.2;whiteSpace=wrap;" parent="cci7vfsGfOAvyLnjox6C-7" vertex="1">
          <mxGeometry x="0.188" y="0.222" width="56.16" height="33.36" relative="1" as="geometry" />
        </mxCell>
        <mxCell id="cci7vfsGfOAvyLnjox6C-10" value="" style="group;html=1;" parent="1" vertex="1">
          <mxGeometry x="458" y="119.5" width="90" height="60" as="geometry" />
        </mxCell>
        <mxCell id="cci7vfsGfOAvyLnjox6C-11" value="" style="shape=stencil(nZBLDoAgDERP0z3SIyjew0SURgSD+Lu9kMZoXLhwN9O+tukAlrNpJg1SzDH4QW/URgNYgZTkjA4UkwJUgGXng+6DX1zLfmoymdXo17xh5zmRJ6Q42BWCfc2oJfdAr+Yv+AP9Cb7OJ3H/2JG1HNGz/84klThPVCc=);whiteSpace=wrap;fontSize=13;fillOpacity=100;strokeWidth=1.2;whiteSpace=wrap;spacing=0;rounded=1;absoluteArcSize=1;arcSize=36;dashed=1;fixDash=1;" parent="cci7vfsGfOAvyLnjox6C-10" vertex="1">
          <mxGeometry width="90" height="60" relative="1" as="geometry" />
        </mxCell>
        <mxCell id="cci7vfsGfOAvyLnjox6C-12" value="Password&#xa;(hash)" style="strokeColor=none;fillColor=none;overflow=visible;whiteSpace=wrap;fontSize=13;whiteSpace=wrap;spacing=0;fillOpacity=100;rounded=1;absoluteArcSize=1;arcSize=36;dashed=1;fixDash=1;strokeWidth=1.2;whiteSpace=wrap;" parent="cci7vfsGfOAvyLnjox6C-10" vertex="1">
          <mxGeometry x="0.188" y="0.222" width="56.16" height="33.36" relative="1" as="geometry" />
        </mxCell>
        <mxCell id="cci7vfsGfOAvyLnjox6C-13" value="" style="group;html=1;" parent="1" vertex="1">
          <mxGeometry x="332" y="44" width="90" height="60" as="geometry" />
        </mxCell>
        <mxCell id="cci7vfsGfOAvyLnjox6C-14" value="" style="shape=stencil(nZBLDoAgDERP0z3SIyjew0SURgSD+Lu9kMZoXLhwN9O+tukAlrNpJg1SzDH4QW/URgNYgZTkjA4UkwJUgGXng+6DX1zLfmoymdXo17xh5zmRJ6Q42BWCfc2oJfdAr+Yv+AP9Cb7OJ3H/2JG1HNGz/84klThPVCc=);whiteSpace=wrap;fontSize=13;fillOpacity=100;strokeWidth=1.2;whiteSpace=wrap;spacing=0;rounded=1;absoluteArcSize=1;arcSize=36;dashed=1;fixDash=1;" parent="cci7vfsGfOAvyLnjox6C-13" vertex="1">
          <mxGeometry width="90" height="60" relative="1" as="geometry" />
        </mxCell>
        <mxCell id="cci7vfsGfOAvyLnjox6C-15" value="UserType" style="strokeColor=none;fillColor=none;overflow=visible;whiteSpace=wrap;fontSize=13;whiteSpace=wrap;spacing=0;fillOpacity=100;rounded=1;absoluteArcSize=1;arcSize=36;dashed=1;fixDash=1;strokeWidth=1.2;whiteSpace=wrap;" parent="cci7vfsGfOAvyLnjox6C-13" vertex="1">
          <mxGeometry x="0.188" y="0.222" width="56.16" height="33.36" relative="1" as="geometry" />
        </mxCell>
        <mxCell id="cci7vfsGfOAvyLnjox6C-16" value="" style="group;html=1;" parent="1" vertex="1">
          <mxGeometry x="164" y="59" width="47" height="31" as="geometry" />
        </mxCell>
        <mxCell id="cci7vfsGfOAvyLnjox6C-17" value="" style="shape=stencil(UzV2Ls5ILEhVNTIoLinKz04tz0wpyVA1dlE1MsrMy0gtyiwBslSNXVWNndPyi1LTi/JL81Ig/IJEkEoQKze/DGRCBUSfAUiHkUElMs8NojAnMw+nQkMDPEphkmQpJtoJKAqBDIQP0zJzciABhCyPHiJAIUhoGrsCAA==);whiteSpace=wrap;fontSize=13;fillOpacity=100;strokeWidth=1.2;whiteSpace=wrap;spacing=0;rounded=1;absoluteArcSize=1;arcSize=1.2;" parent="cci7vfsGfOAvyLnjox6C-16" vertex="1">
          <mxGeometry width="47" height="31" relative="1" as="geometry" />
        </mxCell>
        <mxCell id="cci7vfsGfOAvyLnjox6C-18" value="" style="group;html=1;" parent="1" vertex="1">
          <mxGeometry x="210" y="59" width="47" height="31" as="geometry" />
        </mxCell>
        <mxCell id="cci7vfsGfOAvyLnjox6C-19" value="" style="shape=stencil(UzV2Ls5ILEhVNTIoLinKz04tz0wpyVA1dlE1MsrMy0gtyiwBslSNXVWNndPyi1LTi/JL81Ig/IJEkEoQKze/DGRCBUSfAUiHkUElMs8NojAnMw+nQkMDPEphkmQpJtoJKAqBDIQP0zJzciABhCyPHiJAIUhoGrsCAA==);whiteSpace=wrap;fontSize=13;fillOpacity=100;strokeWidth=1.2;whiteSpace=wrap;spacing=0;rounded=1;absoluteArcSize=1;arcSize=1.2;" parent="cci7vfsGfOAvyLnjox6C-18" vertex="1">
          <mxGeometry width="47" height="31" relative="1" as="geometry" />
        </mxCell>
        <UserObject label="" lucidchartObjectId="wpUodiBZmsWQ" id="cci7vfsGfOAvyLnjox6C-20">
          <mxCell style="html=1;jettySize=18;whiteSpace=wrap;fontSize=13;strokeWidth=1.5;rounded=1;arcSize=12;edgeStyle=orthogonalEdgeStyle;startArrow=none;;endArrow=none;;exitX=1.007;exitY=0.5;exitPerimeter=0;entryX=-0.013;entryY=0.5;entryPerimeter=0;" parent="1" source="cci7vfsGfOAvyLnjox6C-7" target="cci7vfsGfOAvyLnjox6C-3" edge="1">
            <mxGeometry width="100" height="100" relative="1" as="geometry">
              <Array as="points" />
            </mxGeometry>
          </mxCell>
        </UserObject>
        <UserObject label="" lucidchartObjectId="XpUoNl3l4ifS" id="cci7vfsGfOAvyLnjox6C-21">
          <mxCell style="html=1;jettySize=18;whiteSpace=wrap;fontSize=13;strokeOpacity=100;strokeWidth=1.5;rounded=1;arcSize=12;edgeStyle=orthogonalEdgeStyle;startArrow=none;;endArrow=none;;exitX=1.013;exitY=0.5;exitPerimeter=0;entryX=-0.007;entryY=0.5;entryPerimeter=0;" parent="1" source="cci7vfsGfOAvyLnjox6C-5" target="cci7vfsGfOAvyLnjox6C-10" edge="1">
            <mxGeometry width="100" height="100" relative="1" as="geometry">
              <Array as="points" />
            </mxGeometry>
          </mxCell>
        </UserObject>
        <UserObject label="" lucidchartObjectId="2pUoSjS_FtsD" id="cci7vfsGfOAvyLnjox6C-22">
          <mxCell style="html=1;jettySize=18;whiteSpace=wrap;fontSize=13;strokeOpacity=100;strokeWidth=1.5;rounded=1;arcSize=12;edgeStyle=orthogonalEdgeStyle;startArrow=none;;endArrow=none;;exitX=0.5;exitY=-0.01;exitPerimeter=0;entryX=0.348;entryY=1.019;entryPerimeter=0;" parent="1" source="cci7vfsGfOAvyLnjox6C-7" target="cci7vfsGfOAvyLnjox6C-16" edge="1">
            <mxGeometry width="100" height="100" relative="1" as="geometry">
              <Array as="points" />
            </mxGeometry>
          </mxCell>
        </UserObject>
        <UserObject label="" lucidchartObjectId="_pUo.dQQp8Nm" id="cci7vfsGfOAvyLnjox6C-23">
          <mxCell style="html=1;jettySize=18;whiteSpace=wrap;fontSize=13;strokeOpacity=100;strokeWidth=1.5;rounded=1;arcSize=12;edgeStyle=orthogonalEdgeStyle;startArrow=none;;endArrow=none;;exitX=1.013;exitY=0.5;exitPerimeter=0;entryX=-0.007;entryY=0.5;entryPerimeter=0;" parent="1" source="cci7vfsGfOAvyLnjox6C-18" target="cci7vfsGfOAvyLnjox6C-13" edge="1">
            <mxGeometry width="100" height="100" relative="1" as="geometry">
              <Array as="points" />
            </mxGeometry>
          </mxCell>
        </UserObject>
        <mxCell id="cci7vfsGfOAvyLnjox6C-24" value="" style="group;html=1;" parent="1" vertex="1">
          <mxGeometry x="236" y="250" width="90" height="60" as="geometry" />
        </mxCell>
        <mxCell id="cci7vfsGfOAvyLnjox6C-25" value="" style="shape=stencil(nZBLDoAgDERP0z3SIyjew0SURgSD+Lu9kMZoXLhwN9O+tukAlrNpJg1SzDH4QW/URgNYgZTkjA4UkwJUgGXng+6DX1zLfmoymdXo17xh5zmRJ6Q42BWCfc2oJfdAr+Yv+AP9Cb7OJ3H/2JG1HNGz/84klThPVCc=);whiteSpace=wrap;fontSize=13;fillOpacity=100;strokeWidth=1.2;whiteSpace=wrap;spacing=0;rounded=1;absoluteArcSize=1;arcSize=36;" parent="cci7vfsGfOAvyLnjox6C-24" vertex="1">
          <mxGeometry width="90" height="60" relative="1" as="geometry" />
        </mxCell>
        <mxCell id="cci7vfsGfOAvyLnjox6C-26" value="OrgUnit&#xa;(.name)" style="strokeColor=none;fillColor=none;overflow=visible;whiteSpace=wrap;fontSize=13;whiteSpace=wrap;spacing=0;fillOpacity=100;rounded=1;absoluteArcSize=1;arcSize=36;strokeWidth=1.2;whiteSpace=wrap;" parent="cci7vfsGfOAvyLnjox6C-24" vertex="1">
          <mxGeometry x="0.188" y="0.222" width="56.16" height="33.36" relative="1" as="geometry" />
        </mxCell>
        <mxCell id="cci7vfsGfOAvyLnjox6C-27" value="" style="group;html=1;" parent="1" vertex="1">
          <mxGeometry x="209" y="203" width="47" height="31" as="geometry" />
        </mxCell>
        <mxCell id="cci7vfsGfOAvyLnjox6C-28" value="" style="shape=stencil(UzV2Ls5ILEhVNTIoLinKz04tz0wpyVA1dlE1MsrMy0gtyiwBslSNXVWNndPyi1LTi/JL81Ig/IJEkEoQKze/DGRCBUSfAUiHkUElMs8NojAnMw+nQkMDPEphkmQpJtoJKAqBDIQP0zJzciABhCyPHiJAIUhoGrsCAA==);whiteSpace=wrap;fontSize=13;fillOpacity=100;strokeWidth=1.2;whiteSpace=wrap;spacing=0;rounded=1;absoluteArcSize=1;arcSize=1.2;" parent="cci7vfsGfOAvyLnjox6C-27" vertex="1">
          <mxGeometry width="47" height="31" relative="1" as="geometry" />
        </mxCell>
        <mxCell id="cci7vfsGfOAvyLnjox6C-29" value="" style="group;html=1;" parent="1" vertex="1">
          <mxGeometry x="256" y="203" width="47" height="31" as="geometry" />
        </mxCell>
        <mxCell id="cci7vfsGfOAvyLnjox6C-30" value="" style="shape=stencil(UzV2Ls5ILEhVNTIoLinKz04tz0wpyVA1dlE1MsrMy0gtyiwBslSNXVWNndPyi1LTi/JL81Ig/IJEkEoQKze/DGRCBUSfAUiHkUElMs8NojAnMw+nQkMDPEphkmQpJtoJKAqBDIQP0zJzciABhCyPHiJAIUhoGrsCAA==);whiteSpace=wrap;fontSize=13;fillOpacity=100;strokeWidth=1.2;whiteSpace=wrap;spacing=0;rounded=1;absoluteArcSize=1;arcSize=1.2;" parent="cci7vfsGfOAvyLnjox6C-29" vertex="1">
          <mxGeometry width="47" height="31" relative="1" as="geometry" />
        </mxCell>
        <UserObject label="" lucidchartObjectId="AqUoGlhD3~EB" id="cci7vfsGfOAvyLnjox6C-31">
          <mxCell style="html=1;jettySize=18;whiteSpace=wrap;fontSize=13;strokeOpacity=100;strokeWidth=1.5;rounded=1;arcSize=12;edgeStyle=orthogonalEdgeStyle;startArrow=none;;endArrow=none;;exitX=0.5;exitY=1.01;exitPerimeter=0;entryX=-0.013;entryY=0.5;entryPerimeter=0;" parent="1" source="cci7vfsGfOAvyLnjox6C-7" target="cci7vfsGfOAvyLnjox6C-27" edge="1">
            <mxGeometry width="100" height="100" relative="1" as="geometry">
              <Array as="points" />
            </mxGeometry>
          </mxCell>
        </UserObject>
        <UserObject label="" lucidchartObjectId="CqUoW1-_6A-1" id="cci7vfsGfOAvyLnjox6C-32">
          <mxCell style="html=1;jettySize=18;whiteSpace=wrap;fontSize=13;strokeOpacity=100;strokeWidth=1.5;rounded=1;arcSize=12;edgeStyle=orthogonalEdgeStyle;startArrow=none;;endArrow=none;;exitX=0.517;exitY=1.019;exitPerimeter=0;entryX=0.486;entryY=-0.01;entryPerimeter=0;" parent="1" source="cci7vfsGfOAvyLnjox6C-29" target="cci7vfsGfOAvyLnjox6C-24" edge="1">
            <mxGeometry width="100" height="100" relative="1" as="geometry">
              <Array as="points" />
            </mxGeometry>
          </mxCell>
        </UserObject>
        <mxCell id="cci7vfsGfOAvyLnjox6C-33" value="" style="group;html=1;" parent="1" vertex="1">
          <mxGeometry x="173" y="569" width="47" height="31" as="geometry" />
        </mxCell>
        <mxCell id="cci7vfsGfOAvyLnjox6C-34" value="" style="shape=stencil(UzV2Ls5ILEhVNTIoLinKz04tz0wpyVA1dlE1MsrMy0gtyiwBslSNXVWNndPyi1LTi/JL81Ig/IJEkEoQKze/DGRCBUSfAUiHkUElMs8NojAnMw+nQkMDPEphkmQpJtoJKAqBDIQP0zJzciABhCyPHiJAIUhoGrsCAA==);whiteSpace=wrap;fontSize=13;fillOpacity=100;strokeWidth=1.2;whiteSpace=wrap;spacing=0;rounded=1;absoluteArcSize=1;arcSize=1.2;" parent="cci7vfsGfOAvyLnjox6C-33" vertex="1">
          <mxGeometry width="47" height="31" relative="1" as="geometry" />
        </mxCell>
        <mxCell id="cci7vfsGfOAvyLnjox6C-35" value="" style="group;html=1;" parent="1" vertex="1">
          <mxGeometry x="220" y="569" width="47" height="31" as="geometry" />
        </mxCell>
        <mxCell id="cci7vfsGfOAvyLnjox6C-36" value="" style="shape=stencil(UzV2Ls5ILEhVNTIoLinKz04tz0wpyVA1dlE1MsrMy0gtyiwBslSNXVWNndPyi1LTi/JL81Ig/IJEkEoQKze/DGRCBUSfAUiHkUElMs8NojAnMw+nQkMDPEphkmQpJtoJKAqBDIQP0zJzciABhCyPHiJAIUhoGrsCAA==);whiteSpace=wrap;fontSize=13;fillOpacity=100;strokeWidth=1.2;whiteSpace=wrap;spacing=0;rounded=1;absoluteArcSize=1;arcSize=1.2;" parent="cci7vfsGfOAvyLnjox6C-35" vertex="1">
          <mxGeometry width="47" height="31" relative="1" as="geometry" />
        </mxCell>
        <UserObject label="" lucidchartObjectId="urUoFV95wwJ4" id="cci7vfsGfOAvyLnjox6C-37">
          <mxCell style="html=1;jettySize=18;whiteSpace=wrap;fontSize=13;strokeOpacity=100;strokeWidth=1.5;rounded=1;arcSize=12;edgeStyle=orthogonalEdgeStyle;startArrow=none;;endArrow=none;;exitX=-0.007;exitY=0.438;exitPerimeter=0;entryX=-0.013;entryY=0.5;entryPerimeter=0;" parent="1" source="cci7vfsGfOAvyLnjox6C-24" target="cci7vfsGfOAvyLnjox6C-33" edge="1">
            <mxGeometry width="100" height="100" relative="1" as="geometry">
              <Array as="points" />
            </mxGeometry>
          </mxCell>
        </UserObject>
        <mxCell id="cci7vfsGfOAvyLnjox6C-38" value="" style="group;html=1;" parent="1" vertex="1">
          <mxGeometry x="340" y="550" width="90" height="58" as="geometry" />
        </mxCell>
        <mxCell id="cci7vfsGfOAvyLnjox6C-39" value="" style="shape=stencil(nZBLDoAgDERP0z3SIyjew0SURgSD+Lu9kMZoXLhwN9O+tukAlrNpJg1SzDH4QW/URgNYgZTkjA4UkwJUgGXng+6DX1zLfmoymdXo17xh5zmRJ6Q42BWCfc2oJfdAr+Yv+AP9Cb7OJ3H/2JG1HNGz/84klThPVCc=);whiteSpace=wrap;fontSize=13;fillOpacity=100;strokeWidth=1.2;whiteSpace=wrap;spacing=0;rounded=1;absoluteArcSize=1;arcSize=36;dashed=1;fixDash=1;" parent="cci7vfsGfOAvyLnjox6C-38" vertex="1">
          <mxGeometry width="90" height="60" relative="1" as="geometry" />
        </mxCell>
        <mxCell id="cci7vfsGfOAvyLnjox6C-40" value="Credits&#xa;(int)" style="strokeColor=none;fillColor=none;overflow=visible;whiteSpace=wrap;fontSize=13;whiteSpace=wrap;spacing=0;fillOpacity=100;rounded=1;absoluteArcSize=1;arcSize=36;dashed=1;fixDash=1;strokeWidth=1.2;whiteSpace=wrap;" parent="cci7vfsGfOAvyLnjox6C-38" vertex="1">
          <mxGeometry x="0.188" y="0.222" width="56.16" height="33.36" relative="1" as="geometry" />
        </mxCell>
        <mxCell id="UG2KLuJumTgGQN7fInbH-13" style="edgeStyle=orthogonalEdgeStyle;orthogonalLoop=1;jettySize=auto;html=1;entryX=0.538;entryY=1.024;entryDx=0;entryDy=0;entryPerimeter=0;endArrow=none;strokeColor=#000000;strokeWidth=1.5;fontSize=13;" edge="1" parent="cci7vfsGfOAvyLnjox6C-38" source="cci7vfsGfOAvyLnjox6C-39" target="UG2KLuJumTgGQN7fInbH-8">
          <mxGeometry relative="1" as="geometry" />
        </mxCell>
        <UserObject label="" lucidchartObjectId="MrUospK7TK_g" id="cci7vfsGfOAvyLnjox6C-41">
          <mxCell style="html=1;jettySize=18;whiteSpace=wrap;fontSize=13;strokeOpacity=100;strokeWidth=1.5;rounded=1;arcSize=12;edgeStyle=orthogonalEdgeStyle;startArrow=none;;endArrow=none;;exitX=1.013;exitY=0.45;exitPerimeter=0;entryX=-0.007;entryY=0.579;entryPerimeter=0;" parent="1" source="cci7vfsGfOAvyLnjox6C-35" target="cci7vfsGfOAvyLnjox6C-38" edge="1">
            <mxGeometry width="100" height="100" relative="1" as="geometry">
              <Array as="points" />
            </mxGeometry>
          </mxCell>
        </UserObject>
        <mxCell id="cci7vfsGfOAvyLnjox6C-42" value="" style="group;dropTarget=0;" parent="1" vertex="1">
          <mxGeometry x="455" y="270" width="140" height="31" as="geometry" />
        </mxCell>
        <mxCell id="cci7vfsGfOAvyLnjox6C-43" value="" style="group;html=1;" parent="cci7vfsGfOAvyLnjox6C-42" vertex="1">
          <mxGeometry width="47" height="31" as="geometry" />
        </mxCell>
        <mxCell id="cci7vfsGfOAvyLnjox6C-44" value="" style="shape=stencil(UzV2Ls5ILEhVNTIoLinKz04tz0wpyVA1dlE1MsrMy0gtyiwBslSNXVWNndPyi1LTi/JL81Ig/IJEkEoQKze/DGRCBUSfAUiHkUElMs8NojAnMw+nQkMDPEphkmQpJtoJKAqBDIQP0zJzciABhCyPHiJAIUhoGrsCAA==);whiteSpace=wrap;fontSize=13;fillOpacity=100;strokeWidth=1.2;whiteSpace=wrap;spacing=0;rounded=1;absoluteArcSize=1;arcSize=1.2;" parent="cci7vfsGfOAvyLnjox6C-43" vertex="1">
          <mxGeometry width="47" height="31" relative="1" as="geometry" />
        </mxCell>
        <mxCell id="cci7vfsGfOAvyLnjox6C-45" value="" style="group;html=1;" parent="cci7vfsGfOAvyLnjox6C-42" vertex="1">
          <mxGeometry x="47" width="47" height="31" as="geometry" />
        </mxCell>
        <mxCell id="cci7vfsGfOAvyLnjox6C-46" value="" style="shape=stencil(UzV2Ls5ILEhVNTIoLinKz04tz0wpyVA1dlE1MsrMy0gtyiwBslSNXVWNndPyi1LTi/JL81Ig/IJEkEoQKze/DGRCBUSfAUiHkUElMs8NojAnMw+nQkMDPEphkmQpJtoJKAqBDIQP0zJzciABhCyPHiJAIUhoGrsCAA==);whiteSpace=wrap;fontSize=13;fillOpacity=100;strokeWidth=1.2;whiteSpace=wrap;spacing=0;rounded=1;absoluteArcSize=1;arcSize=1.2;" parent="cci7vfsGfOAvyLnjox6C-45" vertex="1">
          <mxGeometry width="47" height="31" relative="1" as="geometry" />
        </mxCell>
        <mxCell id="cci7vfsGfOAvyLnjox6C-47" value="" style="group;html=1;" parent="cci7vfsGfOAvyLnjox6C-42" vertex="1">
          <mxGeometry x="93" width="47" height="31" as="geometry" />
        </mxCell>
        <mxCell id="cci7vfsGfOAvyLnjox6C-48" value="" style="shape=stencil(UzV2Ls5ILEhVNTIoLinKz04tz0wpyVA1dlE1MsrMy0gtyiwBslSNXVWNndPyi1LTi/JL81Ig/IJEkEoQKze/DGRCBUSfAUiHkUElMs8NojAnMw+nQkMDPEphkmQpJtoJKAqBDIQP0zJzciABhCyPHiJAIUhoGrsCAA==);whiteSpace=wrap;fontSize=13;fillOpacity=100;strokeWidth=1.2;whiteSpace=wrap;spacing=0;rounded=1;absoluteArcSize=1;arcSize=1.2;" parent="cci7vfsGfOAvyLnjox6C-47" vertex="1">
          <mxGeometry width="47" height="31" relative="1" as="geometry" />
        </mxCell>
        <mxCell id="cci7vfsGfOAvyLnjox6C-49" value="" style="group;html=1;" parent="1" vertex="1">
          <mxGeometry x="652" y="256" width="90" height="60" as="geometry" />
        </mxCell>
        <mxCell id="cci7vfsGfOAvyLnjox6C-50" value="" style="shape=stencil(nZBLDoAgDERP0z3SIyjew0SURgSD+Lu9kMZoXLhwN9O+tukAlrNpJg1SzDH4QW/URgNYgZTkjA4UkwJUgGXng+6DX1zLfmoymdXo17xh5zmRJ6Q42BWCfc2oJfdAr+Yv+AP9Cb7OJ3H/2JG1HNGz/84klThPVCc=);whiteSpace=wrap;fontSize=13;fillOpacity=100;strokeWidth=1.2;whiteSpace=wrap;spacing=0;rounded=1;absoluteArcSize=1;arcSize=36;" parent="cci7vfsGfOAvyLnjox6C-49" vertex="1">
          <mxGeometry width="90" height="60" relative="1" as="geometry" />
        </mxCell>
        <mxCell id="cci7vfsGfOAvyLnjox6C-51" value="AssetType&#xa;(.id)" style="strokeColor=none;fillColor=none;overflow=visible;whiteSpace=wrap;fontSize=13;whiteSpace=wrap;spacing=0;fillOpacity=100;rounded=1;absoluteArcSize=1;arcSize=36;strokeWidth=1.2;whiteSpace=wrap;" parent="cci7vfsGfOAvyLnjox6C-49" vertex="1">
          <mxGeometry x="0.188" y="0.222" width="56.16" height="33.36" relative="1" as="geometry" />
        </mxCell>
        <mxCell id="UG2KLuJumTgGQN7fInbH-16" style="edgeStyle=orthogonalEdgeStyle;orthogonalLoop=1;jettySize=auto;html=1;endArrow=none;strokeColor=#000000;strokeWidth=1.5;fontSize=13;" edge="1" parent="cci7vfsGfOAvyLnjox6C-49" source="cci7vfsGfOAvyLnjox6C-50" target="UG2KLuJumTgGQN7fInbH-12">
          <mxGeometry relative="1" as="geometry" />
        </mxCell>
        <mxCell id="cci7vfsGfOAvyLnjox6C-52" value="" style="group;html=1;" parent="1" vertex="1">
          <mxGeometry x="480" y="320" width="90" height="60" as="geometry" />
        </mxCell>
        <mxCell id="cci7vfsGfOAvyLnjox6C-53" value="" style="shape=stencil(nZBLDoAgDERP0z3SIyjew0SURgSD+Lu9kMZoXLhwN9O+tukAlrNpJg1SzDH4QW/URgNYgZTkjA4UkwJUgGXng+6DX1zLfmoymdXo17xh5zmRJ6Q42BWCfc2oJfdAr+Yv+AP9Cb7OJ3H/2JG1HNGz/84klThPVCc=);whiteSpace=wrap;fontSize=13;fillOpacity=100;strokeWidth=1.2;whiteSpace=wrap;spacing=0;rounded=1;absoluteArcSize=1;arcSize=36;dashed=1;fixDash=1;" parent="cci7vfsGfOAvyLnjox6C-52" vertex="1">
          <mxGeometry width="90" height="60" relative="1" as="geometry" />
        </mxCell>
        <mxCell id="cci7vfsGfOAvyLnjox6C-54" value="Quantity&#xa;(int)" style="strokeColor=none;fillColor=none;overflow=visible;whiteSpace=wrap;fontSize=13;whiteSpace=wrap;spacing=0;fillOpacity=100;rounded=1;absoluteArcSize=1;arcSize=36;dashed=1;fixDash=1;strokeWidth=1.2;whiteSpace=wrap;" parent="cci7vfsGfOAvyLnjox6C-52" vertex="1">
          <mxGeometry x="0.188" y="0.222" width="56.16" height="33.36" relative="1" as="geometry" />
        </mxCell>
        <mxCell id="UG2KLuJumTgGQN7fInbH-15" style="edgeStyle=orthogonalEdgeStyle;orthogonalLoop=1;jettySize=auto;html=1;entryX=0.58;entryY=0.123;entryDx=0;entryDy=0;entryPerimeter=0;endArrow=none;strokeColor=#000000;strokeWidth=1.5;fontSize=13;" edge="1" parent="cci7vfsGfOAvyLnjox6C-52" target="UG2KLuJumTgGQN7fInbH-10">
          <mxGeometry relative="1" as="geometry">
            <mxPoint x="90" y="30" as="sourcePoint" />
          </mxGeometry>
        </mxCell>
        <UserObject label="" lucidchartObjectId="otUobNhH72aN" id="cci7vfsGfOAvyLnjox6C-55">
          <mxCell style="html=1;jettySize=18;whiteSpace=wrap;fontSize=13;strokeOpacity=100;strokeWidth=1.5;rounded=1;arcSize=12;edgeStyle=orthogonalEdgeStyle;startArrow=none;;endArrow=none;;exitX=0.5;exitY=-0.01;exitPerimeter=0;entryX=0.5;entryY=1.019;entryPerimeter=0;" parent="1" source="cci7vfsGfOAvyLnjox6C-52" target="cci7vfsGfOAvyLnjox6C-45" edge="1">
            <mxGeometry width="100" height="100" relative="1" as="geometry">
              <Array as="points" />
            </mxGeometry>
          </mxCell>
        </UserObject>
        <UserObject label="" lucidchartObjectId="stUoQ4mwAajB" id="cci7vfsGfOAvyLnjox6C-56">
          <mxCell style="html=1;jettySize=18;whiteSpace=wrap;fontSize=13;strokeOpacity=100;strokeWidth=1.5;rounded=1;arcSize=12;edgeStyle=orthogonalEdgeStyle;startArrow=none;;endArrow=none;;exitX=1.007;exitY=0.587;exitPerimeter=0;entryX=-0.013;entryY=0.5;entryPerimeter=0;" parent="1" source="cci7vfsGfOAvyLnjox6C-24" target="cci7vfsGfOAvyLnjox6C-43" edge="1">
            <mxGeometry width="100" height="100" relative="1" as="geometry">
              <Array as="points" />
            </mxGeometry>
          </mxCell>
        </UserObject>
        <UserObject label="" lucidchartObjectId="wtUo6aksbGxe" id="cci7vfsGfOAvyLnjox6C-57">
          <mxCell style="html=1;jettySize=18;whiteSpace=wrap;fontSize=13;strokeOpacity=100;strokeWidth=1.5;rounded=1;arcSize=12;edgeStyle=orthogonalEdgeStyle;startArrow=none;;endArrow=none;;exitX=-0.007;exitY=0.5;exitPerimeter=0;entryX=1.013;entryY=0.5;entryPerimeter=0;" parent="1" source="cci7vfsGfOAvyLnjox6C-49" target="cci7vfsGfOAvyLnjox6C-47" edge="1">
            <mxGeometry width="100" height="100" relative="1" as="geometry">
              <Array as="points" />
            </mxGeometry>
          </mxCell>
        </UserObject>
        <mxCell id="cci7vfsGfOAvyLnjox6C-58" value="" style="group;html=1;" parent="1" vertex="1">
          <mxGeometry x="455" y="260" width="47" height="1" as="geometry" />
        </mxCell>
        <mxCell id="cci7vfsGfOAvyLnjox6C-59" value="" style="shape=stencil(dY9dDoQgDIRP09dNoUdQ9x4kojSyYJD98faCNdFs4ttM+7WdAjWLM7MFjUtOcbJf7rMDakFrDs4mzkUBdUDNEJMdU3yHXvxsKlnVK37qhp/M4UPVGY3r4Xf3FNRzuKAK8R4t4jwxsPeS8Nr/j1RK8g51Gw==);whiteSpace=wrap;fontSize=13;strokeColor=#800080;fillOpacity=0;fillColor=#ffffff;strokeWidth=1.5;whiteSpace=wrap;spacing=0;rounded=1;absoluteArcSize=1;arcSize=1.2;" parent="cci7vfsGfOAvyLnjox6C-58" vertex="1">
          <mxGeometry width="47" height="1" relative="1" as="geometry" />
        </mxCell>
        <mxCell id="cci7vfsGfOAvyLnjox6C-60" value="" style="shape=stencil(fY9LDoAgDERP061BumLt5x4mojQiGMTf7YV0oXHhbqZ9baeA1Wq6RYMUawx+0gf10QDWICU5owPFpAAbwGrwQY/Bb65nv3SZzGr2e95w8pzIE1Jc7ErBvmXUknuhShXqj07iuTKQtRzy3f+mSiX+CJsb);whiteSpace=wrap;fontSize=13;strokeOpacity=0;fillOpacity=0;fillColor=#ffffff;strokeWidth=1.5;whiteSpace=wrap;spacing=0;rounded=1;absoluteArcSize=1;arcSize=1.2;" parent="cci7vfsGfOAvyLnjox6C-58" vertex="1">
          <mxGeometry width="47" height="1" relative="1" as="geometry" />
        </mxCell>
        <mxCell id="cci7vfsGfOAvyLnjox6C-61" value="" style="group;html=1;" parent="1" vertex="1">
          <mxGeometry x="548" y="260" width="47" height="1" as="geometry" />
        </mxCell>
        <mxCell id="cci7vfsGfOAvyLnjox6C-62" value="" style="shape=stencil(dY9dDoQgDIRP09dNoUdQ9x4kojSyYJD98faCNdFs4ttM+7WdAjWLM7MFjUtOcbJf7rMDakFrDs4mzkUBdUDNEJMdU3yHXvxsKlnVK37qhp/M4UPVGY3r4Xf3FNRzuKAK8R4t4jwxsPeS8Nr/j1RK8g51Gw==);whiteSpace=wrap;fontSize=13;strokeColor=#800080;fillOpacity=0;fillColor=#ffffff;strokeWidth=1.5;whiteSpace=wrap;spacing=0;rounded=1;absoluteArcSize=1;arcSize=1.2;" parent="cci7vfsGfOAvyLnjox6C-61" vertex="1">
          <mxGeometry width="47" height="1" relative="1" as="geometry" />
        </mxCell>
        <mxCell id="cci7vfsGfOAvyLnjox6C-63" value="" style="shape=stencil(fY9LDoAgDERP061BumLt5x4mojQiGMTf7YV0oXHhbqZ9baeA1Wq6RYMUawx+0gf10QDWICU5owPFpAAbwGrwQY/Bb65nv3SZzGr2e95w8pzIE1Jc7ErBvmXUknuhShXqj07iuTKQtRzy3f+mSiX+CJsb);whiteSpace=wrap;fontSize=13;strokeOpacity=0;fillOpacity=0;fillColor=#ffffff;strokeWidth=1.5;whiteSpace=wrap;spacing=0;rounded=1;absoluteArcSize=1;arcSize=1.2;" parent="cci7vfsGfOAvyLnjox6C-61" vertex="1">
          <mxGeometry width="47" height="1" relative="1" as="geometry" />
        </mxCell>
        <UserObject label="" lucidchartObjectId="JzUoSvtOLxQg" id="cci7vfsGfOAvyLnjox6C-64">
          <mxCell style="html=1;jettySize=18;whiteSpace=wrap;fontSize=13;strokeColor=#800080;strokeOpacity=100;dashed=1;fixDash=1;dashPattern=3 8;strokeWidth=1.5;rounded=1;arcSize=0;edgeStyle=orthogonalEdgeStyle;startArrow=none;;endArrow=none;;exitX=1;exitY=-0.232;exitPerimeter=0;entryX=0.001;entryY=-0.232;entryPerimeter=0;" parent="1" source="cci7vfsGfOAvyLnjox6C-58" target="cci7vfsGfOAvyLnjox6C-61" edge="1">
            <mxGeometry width="100" height="100" relative="1" as="geometry">
              <Array as="points">
                <mxPoint x="520" y="260" />
                <mxPoint x="520" y="260" />
              </Array>
            </mxGeometry>
          </mxCell>
        </UserObject>
        <UserObject label="" lucidchartObjectId="EBUo8RcjoxGg" id="cci7vfsGfOAvyLnjox6C-65">
          <mxCell style="html=1;overflow=block;blockSpacing=1;whiteSpace=wrap;shape=mxgraph.basic.acute_triangle;dx=0.5;anchorPointDirection=0;whiteSpace=wrap;fontSize=13;spacing=3.8;strokeOpacity=100;fillOpacity=100;rotation=90;fillColor=#000000;strokeWidth=1.5;" parent="1" vertex="1">
            <mxGeometry x="234" y="534.5" width="19" height="26" as="geometry" />
          </mxCell>
        </UserObject>
        <mxCell id="cci7vfsGfOAvyLnjox6C-66" value="" style="group;html=1;" parent="1" vertex="1">
          <mxGeometry x="173" y="563" width="47" height="1" as="geometry" />
        </mxCell>
        <mxCell id="cci7vfsGfOAvyLnjox6C-67" value="" style="shape=stencil(dY9dDoQgDIRP09dNoUdQ9x4kojSyYJD98faCNdFs4ttM+7WdAjWLM7MFjUtOcbJf7rMDakFrDs4mzkUBdUDNEJMdU3yHXvxsKlnVK37qhp/M4UPVGY3r4Xf3FNRzuKAK8R4t4jwxsPeS8Nr/j1RK8g51Gw==);whiteSpace=wrap;fontSize=13;strokeColor=#800080;fillOpacity=0;fillColor=#ffffff;strokeWidth=1.5;whiteSpace=wrap;spacing=0;rounded=1;absoluteArcSize=1;arcSize=1.2;" parent="cci7vfsGfOAvyLnjox6C-66" vertex="1">
          <mxGeometry width="47" height="1" relative="1" as="geometry" />
        </mxCell>
        <mxCell id="cci7vfsGfOAvyLnjox6C-68" value="" style="shape=stencil(fY9LDoAgDERP061BumLt5x4mojQiGMTf7YV0oXHhbqZ9baeA1Wq6RYMUawx+0gf10QDWICU5owPFpAAbwGrwQY/Bb65nv3SZzGr2e95w8pzIE1Jc7ErBvmXUknuhShXqj07iuTKQtRzy3f+mSiX+CJsb);whiteSpace=wrap;fontSize=13;strokeOpacity=0;fillOpacity=0;fillColor=#ffffff;strokeWidth=1.5;whiteSpace=wrap;spacing=0;rounded=1;absoluteArcSize=1;arcSize=1.2;" parent="cci7vfsGfOAvyLnjox6C-66" vertex="1">
          <mxGeometry width="47" height="1" relative="1" as="geometry" />
        </mxCell>
        <mxCell id="cci7vfsGfOAvyLnjox6C-69" value="" style="group;html=1;" parent="1" vertex="1">
          <mxGeometry x="210" y="195" width="47" height="1" as="geometry" />
        </mxCell>
        <mxCell id="cci7vfsGfOAvyLnjox6C-70" value="" style="shape=stencil(dY9dDoQgDIRP09dNoUdQ9x4kojSyYJD98faCNdFs4ttM+7WdAjWLM7MFjUtOcbJf7rMDakFrDs4mzkUBdUDNEJMdU3yHXvxsKlnVK37qhp/M4UPVGY3r4Xf3FNRzuKAK8R4t4jwxsPeS8Nr/j1RK8g51Gw==);whiteSpace=wrap;fontSize=13;strokeColor=#800080;fillOpacity=0;fillColor=#ffffff;strokeWidth=1.5;whiteSpace=wrap;spacing=0;rounded=1;absoluteArcSize=1;arcSize=1.2;" parent="cci7vfsGfOAvyLnjox6C-69" vertex="1">
          <mxGeometry width="47" height="1" relative="1" as="geometry" />
        </mxCell>
        <mxCell id="cci7vfsGfOAvyLnjox6C-71" value="" style="shape=stencil(fY9LDoAgDERP061BumLt5x4mojQiGMTf7YV0oXHhbqZ9baeA1Wq6RYMUawx+0gf10QDWICU5owPFpAAbwGrwQY/Bb65nv3SZzGr2e95w8pzIE1Jc7ErBvmXUknuhShXqj07iuTKQtRzy3f+mSiX+CJsb);whiteSpace=wrap;fontSize=13;strokeOpacity=0;fillOpacity=0;fillColor=#ffffff;strokeWidth=1.5;whiteSpace=wrap;spacing=0;rounded=1;absoluteArcSize=1;arcSize=1.2;" parent="cci7vfsGfOAvyLnjox6C-69" vertex="1">
          <mxGeometry width="47" height="1" relative="1" as="geometry" />
        </mxCell>
        <mxCell id="cci7vfsGfOAvyLnjox6C-72" value="" style="group;html=1;" parent="1" vertex="1">
          <mxGeometry x="284" y="125" width="47" height="1" as="geometry" />
        </mxCell>
        <mxCell id="cci7vfsGfOAvyLnjox6C-73" value="" style="shape=stencil(dY9dDoQgDIRP09dNoUdQ9x4kojSyYJD98faCNdFs4ttM+7WdAjWLM7MFjUtOcbJf7rMDakFrDs4mzkUBdUDNEJMdU3yHXvxsKlnVK37qhp/M4UPVGY3r4Xf3FNRzuKAK8R4t4jwxsPeS8Nr/j1RK8g51Gw==);whiteSpace=wrap;fontSize=13;strokeColor=#800080;fillOpacity=0;fillColor=#ffffff;strokeWidth=1.5;whiteSpace=wrap;spacing=0;rounded=1;absoluteArcSize=1;arcSize=1.2;" parent="cci7vfsGfOAvyLnjox6C-72" vertex="1">
          <mxGeometry width="47" height="1" relative="1" as="geometry" />
        </mxCell>
        <mxCell id="cci7vfsGfOAvyLnjox6C-74" value="" style="shape=stencil(fY9LDoAgDERP061BumLt5x4mojQiGMTf7YV0oXHhbqZ9baeA1Wq6RYMUawx+0gf10QDWICU5owPFpAAbwGrwQY/Bb65nv3SZzGr2e95w8pzIE1Jc7ErBvmXUknuhShXqj07iuTKQtRzy3f+mSiX+CJsb);whiteSpace=wrap;fontSize=13;strokeOpacity=0;fillOpacity=0;fillColor=#ffffff;strokeWidth=1.5;whiteSpace=wrap;spacing=0;rounded=1;absoluteArcSize=1;arcSize=1.2;" parent="cci7vfsGfOAvyLnjox6C-72" vertex="1">
          <mxGeometry width="47" height="1" relative="1" as="geometry" />
        </mxCell>
        <mxCell id="cci7vfsGfOAvyLnjox6C-75" value="" style="group;html=1;" parent="1" vertex="1">
          <mxGeometry x="164" y="50" width="47" height="1" as="geometry" />
        </mxCell>
        <mxCell id="cci7vfsGfOAvyLnjox6C-76" value="" style="shape=stencil(dY9dDoQgDIRP09dNoUdQ9x4kojSyYJD98faCNdFs4ttM+7WdAjWLM7MFjUtOcbJf7rMDakFrDs4mzkUBdUDNEJMdU3yHXvxsKlnVK37qhp/M4UPVGY3r4Xf3FNRzuKAK8R4t4jwxsPeS8Nr/j1RK8g51Gw==);whiteSpace=wrap;fontSize=13;strokeColor=#800080;fillOpacity=0;fillColor=#ffffff;strokeWidth=1.5;whiteSpace=wrap;spacing=0;rounded=1;absoluteArcSize=1;arcSize=1.2;" parent="cci7vfsGfOAvyLnjox6C-75" vertex="1">
          <mxGeometry width="47" height="1" relative="1" as="geometry" />
        </mxCell>
        <mxCell id="cci7vfsGfOAvyLnjox6C-77" value="" style="shape=stencil(fY9LDoAgDERP061BumLt5x4mojQiGMTf7YV0oXHhbqZ9baeA1Wq6RYMUawx+0gf10QDWICU5owPFpAAbwGrwQY/Bb65nv3SZzGr2e95w8pzIE1Jc7ErBvmXUknuhShXqj07iuTKQtRzy3f+mSiX+CJsb);whiteSpace=wrap;fontSize=13;strokeOpacity=0;fillOpacity=0;fillColor=#ffffff;strokeWidth=1.5;whiteSpace=wrap;spacing=0;rounded=1;absoluteArcSize=1;arcSize=1.2;" parent="cci7vfsGfOAvyLnjox6C-75" vertex="1">
          <mxGeometry width="47" height="1" relative="1" as="geometry" />
        </mxCell>
        <mxCell id="cci7vfsGfOAvyLnjox6C-78" value="" style="group;dropTarget=0;" parent="1" vertex="1">
          <mxGeometry x="326" y="465" width="187" height="31" as="geometry" />
        </mxCell>
        <mxCell id="cci7vfsGfOAvyLnjox6C-79" value="" style="group;html=1;" parent="cci7vfsGfOAvyLnjox6C-78" vertex="1">
          <mxGeometry width="47" height="31" as="geometry" />
        </mxCell>
        <mxCell id="cci7vfsGfOAvyLnjox6C-80" value="" style="shape=stencil(UzV2Ls5ILEhVNTIoLinKz04tz0wpyVA1dlE1MsrMy0gtyiwBslSNXVWNndPyi1LTi/JL81Ig/IJEkEoQKze/DGRCBUSfAUiHkUElMs8NojAnMw+nQkMDPEphkmQpJtoJKAqBDIQP0zJzciABhCyPHiJAIUhoGrsCAA==);whiteSpace=wrap;fontSize=13;fillOpacity=100;strokeWidth=1.2;whiteSpace=wrap;spacing=0;rounded=1;absoluteArcSize=1;arcSize=1.2;" parent="cci7vfsGfOAvyLnjox6C-79" vertex="1">
          <mxGeometry width="47" height="31" relative="1" as="geometry" />
        </mxCell>
        <mxCell id="cci7vfsGfOAvyLnjox6C-81" value="" style="group;html=1;" parent="cci7vfsGfOAvyLnjox6C-78" vertex="1">
          <mxGeometry x="47" width="47" height="31" as="geometry" />
        </mxCell>
        <mxCell id="cci7vfsGfOAvyLnjox6C-82" value="" style="shape=stencil(UzV2Ls5ILEhVNTIoLinKz04tz0wpyVA1dlE1MsrMy0gtyiwBslSNXVWNndPyi1LTi/JL81Ig/IJEkEoQKze/DGRCBUSfAUiHkUElMs8NojAnMw+nQkMDPEphkmQpJtoJKAqBDIQP0zJzciABhCyPHiJAIUhoGrsCAA==);whiteSpace=wrap;fontSize=13;fillOpacity=100;strokeWidth=1.2;whiteSpace=wrap;spacing=0;rounded=1;absoluteArcSize=1;arcSize=1.2;" parent="cci7vfsGfOAvyLnjox6C-81" vertex="1">
          <mxGeometry width="47" height="31" relative="1" as="geometry" />
        </mxCell>
        <mxCell id="cci7vfsGfOAvyLnjox6C-83" value="" style="group;html=1;" parent="cci7vfsGfOAvyLnjox6C-78" vertex="1">
          <mxGeometry x="93" width="47" height="31" as="geometry" />
        </mxCell>
        <mxCell id="cci7vfsGfOAvyLnjox6C-84" value="" style="shape=stencil(UzV2Ls5ILEhVNTIoLinKz04tz0wpyVA1dlE1MsrMy0gtyiwBslSNXVWNndPyi1LTi/JL81Ig/IJEkEoQKze/DGRCBUSfAUiHkUElMs8NojAnMw+nQkMDPEphkmQpJtoJKAqBDIQP0zJzciABhCyPHiJAIUhoGrsCAA==);whiteSpace=wrap;fontSize=13;fillOpacity=100;strokeWidth=1.2;whiteSpace=wrap;spacing=0;rounded=1;absoluteArcSize=1;arcSize=1.2;" parent="cci7vfsGfOAvyLnjox6C-83" vertex="1">
          <mxGeometry width="47" height="31" relative="1" as="geometry" />
        </mxCell>
        <mxCell id="cci7vfsGfOAvyLnjox6C-85" value="" style="group;html=1;" parent="cci7vfsGfOAvyLnjox6C-78" vertex="1">
          <mxGeometry x="140" width="47" height="31" as="geometry" />
        </mxCell>
        <mxCell id="cci7vfsGfOAvyLnjox6C-86" value="" style="shape=stencil(UzV2Ls5ILEhVNTIoLinKz04tz0wpyVA1dlE1MsrMy0gtyiwBslSNXVWNndPyi1LTi/JL81Ig/IJEkEoQKze/DGRCBUSfAUiHkUElMs8NojAnMw+nQkMDPEphkmQpJtoJKAqBDIQP0zJzciABhCyPHiJAIUhoGrsCAA==);whiteSpace=wrap;fontSize=13;fillOpacity=100;strokeWidth=1.2;whiteSpace=wrap;spacing=0;rounded=1;absoluteArcSize=1;arcSize=1.2;" parent="cci7vfsGfOAvyLnjox6C-85" vertex="1">
          <mxGeometry width="47" height="31" relative="1" as="geometry" />
        </mxCell>
        <UserObject label="" lucidchartObjectId=".LUo0b~XpZR4" id="cci7vfsGfOAvyLnjox6C-87">
          <mxCell style="html=1;jettySize=18;whiteSpace=wrap;fontSize=13;strokeOpacity=100;strokeWidth=1.5;rounded=1;arcSize=12;edgeStyle=orthogonalEdgeStyle;startArrow=none;;endArrow=none;;exitX=0.261;exitY=1.01;exitPerimeter=0;entryX=0.626;entryY=-0.019;entryPerimeter=0;" parent="1" source="cci7vfsGfOAvyLnjox6C-49" target="cci7vfsGfOAvyLnjox6C-85" edge="1">
            <mxGeometry width="100" height="100" relative="1" as="geometry">
              <Array as="points" />
            </mxGeometry>
          </mxCell>
        </UserObject>
        <UserObject label="" lucidchartObjectId="EMUo_mrWWqi7" id="cci7vfsGfOAvyLnjox6C-88">
          <mxCell style="html=1;jettySize=18;whiteSpace=wrap;fontSize=13;strokeOpacity=100;strokeWidth=1.5;rounded=1;arcSize=12;edgeStyle=orthogonalEdgeStyle;startArrow=none;;endArrow=none;;entryX=0.464;entryY=-0.019;entryPerimeter=0;exitX=0.014;exitY=0.484;exitDx=0;exitDy=0;exitPerimeter=0;" parent="1" source="cci7vfsGfOAvyLnjox6C-53" target="cci7vfsGfOAvyLnjox6C-83" edge="1">
            <mxGeometry width="100" height="100" relative="1" as="geometry">
              <Array as="points" />
              <mxPoint x="480" y="390" as="sourcePoint" />
            </mxGeometry>
          </mxCell>
        </UserObject>
        <UserObject label="" lucidchartObjectId="RNUo4c3EZ5k9" id="cci7vfsGfOAvyLnjox6C-90">
          <mxCell style="html=1;jettySize=18;whiteSpace=wrap;fontSize=13;strokeOpacity=100;strokeWidth=1.5;rounded=1;arcSize=12;edgeStyle=orthogonalEdgeStyle;startArrow=none;;endArrow=none;;exitX=0.228;exitY=1.01;exitPerimeter=0;entryX=-0.013;entryY=0.5;entryPerimeter=0;" parent="1" source="cci7vfsGfOAvyLnjox6C-24" target="cci7vfsGfOAvyLnjox6C-79" edge="1">
            <mxGeometry width="100" height="100" relative="1" as="geometry">
              <Array as="points" />
            </mxGeometry>
          </mxCell>
        </UserObject>
        <mxCell id="cci7vfsGfOAvyLnjox6C-91" value="" style="group;html=1;" parent="1" vertex="1">
          <mxGeometry x="325" y="453" width="187" height="1" as="geometry" />
        </mxCell>
        <mxCell id="cci7vfsGfOAvyLnjox6C-92" value="" style="shape=stencil(dY9dDoQgDIRP09dNoUdQ9x4kojSyYJD98faCNdFs4ttM+7WdAjWLM7MFjUtOcbJf7rMDakFrDs4mzkUBdUDNEJMdU3yHXvxsKlnVK37qhp/M4UPVGY3r4Xf3FNRzuKAK8R4t4jwxsPeS8Nr/j1RK8g51Gw==);whiteSpace=wrap;fontSize=13;strokeColor=#800080;fillOpacity=0;fillColor=#ffffff;strokeWidth=1.5;whiteSpace=wrap;spacing=0;rounded=1;absoluteArcSize=1;arcSize=1.2;" parent="cci7vfsGfOAvyLnjox6C-91" vertex="1">
          <mxGeometry width="187" height="1" relative="1" as="geometry" />
        </mxCell>
        <mxCell id="cci7vfsGfOAvyLnjox6C-93" value="" style="shape=stencil(fY9LDoAgDERP061BumLt5x4mojQiGMTf7YV0oXHhbqZ9baeA1Wq6RYMUawx+0gf10QDWICU5owPFpAAbwGrwQY/Bb65nv3SZzGr2e95w8pzIE1Jc7ErBvmXUknuhShXqj07iuTKQtRzy3f+mSiX+CJsb);whiteSpace=wrap;fontSize=13;strokeOpacity=0;fillOpacity=0;fillColor=#ffffff;strokeWidth=1.5;whiteSpace=wrap;spacing=0;rounded=1;absoluteArcSize=1;arcSize=1.2;" parent="cci7vfsGfOAvyLnjox6C-91" vertex="1">
          <mxGeometry width="187" height="1" relative="1" as="geometry" />
        </mxCell>
        <mxCell id="UG2KLuJumTgGQN7fInbH-3" style="edgeStyle=orthogonalEdgeStyle;orthogonalLoop=1;jettySize=auto;html=1;entryX=0.635;entryY=0.008;entryDx=0;entryDy=0;entryPerimeter=0;endArrow=none;strokeWidth=1.5;fontSize=13;" edge="1" parent="1" source="cci7vfsGfOAvyLnjox6C-82" target="cci7vfsGfOAvyLnjox6C-39">
          <mxGeometry relative="1" as="geometry" />
        </mxCell>
        <mxCell id="UG2KLuJumTgGQN7fInbH-4" value="" style="group;dropTarget=0;" vertex="1" parent="1">
          <mxGeometry x="500" y="510" width="187" height="31" as="geometry" />
        </mxCell>
        <mxCell id="UG2KLuJumTgGQN7fInbH-5" value="" style="group;html=1;" vertex="1" parent="UG2KLuJumTgGQN7fInbH-4">
          <mxGeometry width="47" height="31" as="geometry" />
        </mxCell>
        <mxCell id="UG2KLuJumTgGQN7fInbH-6" value="" style="shape=stencil(UzV2Ls5ILEhVNTIoLinKz04tz0wpyVA1dlE1MsrMy0gtyiwBslSNXVWNndPyi1LTi/JL81Ig/IJEkEoQKze/DGRCBUSfAUiHkUElMs8NojAnMw+nQkMDPEphkmQpJtoJKAqBDIQP0zJzciABhCyPHiJAIUhoGrsCAA==);whiteSpace=wrap;fontSize=13;fillOpacity=100;strokeWidth=1.2;whiteSpace=wrap;spacing=0;rounded=1;absoluteArcSize=1;arcSize=1.2;" vertex="1" parent="UG2KLuJumTgGQN7fInbH-5">
          <mxGeometry width="47" height="31" relative="1" as="geometry" />
        </mxCell>
        <mxCell id="UG2KLuJumTgGQN7fInbH-7" value="" style="group;html=1;" vertex="1" parent="UG2KLuJumTgGQN7fInbH-4">
          <mxGeometry x="47" width="47" height="31" as="geometry" />
        </mxCell>
        <mxCell id="UG2KLuJumTgGQN7fInbH-8" value="" style="shape=stencil(UzV2Ls5ILEhVNTIoLinKz04tz0wpyVA1dlE1MsrMy0gtyiwBslSNXVWNndPyi1LTi/JL81Ig/IJEkEoQKze/DGRCBUSfAUiHkUElMs8NojAnMw+nQkMDPEphkmQpJtoJKAqBDIQP0zJzciABhCyPHiJAIUhoGrsCAA==);whiteSpace=wrap;fontSize=13;fillOpacity=100;strokeWidth=1.2;whiteSpace=wrap;spacing=0;rounded=1;absoluteArcSize=1;arcSize=1.2;" vertex="1" parent="UG2KLuJumTgGQN7fInbH-7">
          <mxGeometry width="47" height="31" relative="1" as="geometry" />
        </mxCell>
        <mxCell id="UG2KLuJumTgGQN7fInbH-9" value="" style="group;html=1;" vertex="1" parent="UG2KLuJumTgGQN7fInbH-4">
          <mxGeometry x="93" width="47" height="31" as="geometry" />
        </mxCell>
        <mxCell id="UG2KLuJumTgGQN7fInbH-10" value="" style="shape=stencil(UzV2Ls5ILEhVNTIoLinKz04tz0wpyVA1dlE1MsrMy0gtyiwBslSNXVWNndPyi1LTi/JL81Ig/IJEkEoQKze/DGRCBUSfAUiHkUElMs8NojAnMw+nQkMDPEphkmQpJtoJKAqBDIQP0zJzciABhCyPHiJAIUhoGrsCAA==);whiteSpace=wrap;fontSize=13;fillOpacity=100;strokeWidth=1.2;whiteSpace=wrap;spacing=0;rounded=1;absoluteArcSize=1;arcSize=1.2;" vertex="1" parent="UG2KLuJumTgGQN7fInbH-9">
          <mxGeometry width="47" height="31" relative="1" as="geometry" />
        </mxCell>
        <mxCell id="UG2KLuJumTgGQN7fInbH-11" value="" style="group;html=1;" vertex="1" parent="UG2KLuJumTgGQN7fInbH-4">
          <mxGeometry x="140" width="47" height="31" as="geometry" />
        </mxCell>
        <mxCell id="UG2KLuJumTgGQN7fInbH-12" value="" style="shape=stencil(UzV2Ls5ILEhVNTIoLinKz04tz0wpyVA1dlE1MsrMy0gtyiwBslSNXVWNndPyi1LTi/JL81Ig/IJEkEoQKze/DGRCBUSfAUiHkUElMs8NojAnMw+nQkMDPEphkmQpJtoJKAqBDIQP0zJzciABhCyPHiJAIUhoGrsCAA==);whiteSpace=wrap;fontSize=13;fillOpacity=100;strokeWidth=1.2;whiteSpace=wrap;spacing=0;rounded=1;absoluteArcSize=1;arcSize=1.2;" vertex="1" parent="UG2KLuJumTgGQN7fInbH-11">
          <mxGeometry width="47" height="31" relative="1" as="geometry" />
        </mxCell>
        <mxCell id="UG2KLuJumTgGQN7fInbH-14" style="edgeStyle=orthogonalEdgeStyle;orthogonalLoop=1;jettySize=auto;html=1;endArrow=none;strokeColor=#000000;strokeWidth=1.5;fontSize=13;exitX=0.688;exitY=1.018;exitDx=0;exitDy=0;exitPerimeter=0;" edge="1" parent="1" source="cci7vfsGfOAvyLnjox6C-25">
          <mxGeometry relative="1" as="geometry">
            <mxPoint x="526" y="510" as="targetPoint" />
            <Array as="points">
              <mxPoint x="298" y="420" />
              <mxPoint x="526" y="420" />
            </Array>
          </mxGeometry>
        </mxCell>
      </root>
    </mxGraphModel>
  </diagram>
</mxfile>
